<svg xmlns="http://www.w3.org/2000/svg" fill="none" viewBox="0 0 136 136" height="136" width="136">
<path fill="#E6E8EA" d="M60.9844 43.2854L61.8833 42.3865L62.7822 43.2854L61.8833 44.1843L60.9844 43.2854Z"></path>
<path fill="#474D57" d="M68.1284 72.6457V58.7836H15.3881C11.5602 58.7836 8.45703 61.8867 8.45703 65.7146C8.45703 69.5426 11.5602 72.6457 15.3881 72.6457L68.1284 72.6457Z"></path>
<path fill="url(#paint0_linear_5999_260879)" d="M32.0764 55.9C32.0764 44.5113 41.3087 35.279 52.6974 35.279C64.086 35.279 73.3184 44.5113 73.3184 55.9C73.3184 67.2886 64.086 76.5209 52.6974 76.5209C41.3087 76.5209 32.0764 67.2886 32.0764 55.9Z"></path>
<path fill="#F0B90B" d="M61.0566 55.8999L52.6968 64.2597L44.3369 55.8999L52.6968 47.54L61.0566 55.8999Z"></path>
<circle stroke-width="4.8351" stroke="#F8D33A" transform="rotate(180 52.6974 55.9)" r="18.2034" cy="55.9" cx="52.6974"></circle>
<path fill="#76808F" d="M15.291 65.9744L15.291 111.818H71.921V65.9744H15.291Z"></path>
<path fill="#F8D33A" d="M68.1434 72.6268L15.3808 72.6268C11.6613 72.6268 8.62601 69.6969 8.45716 66.019L8.45703 104.904C8.45703 108.723 11.5526 111.818 15.3711 111.818H68.1434V72.6268Z"></path>
<path fill="#2B2F36" d="M51.0645 102.47H68.1433V85.3908H51.0645V102.47Z"></path>
<path fill="#F8D33A" d="M55.5586 94.02L59.6935 89.8851L63.8284 94.02L59.6935 98.1548L55.5586 94.02Z"></path>
<path fill="#B97030" d="M97.6369 58.6019C99.1277 57.1111 99.1278 54.6941 97.637 53.2033C96.1463 51.7125 93.7293 51.7124 92.2385 53.2032L97.6369 58.6019ZM80.3148 65.2643L77.6155 67.9636L80.3148 65.2643ZM68.6788 59.027L77.6155 67.9636L83.014 62.5651L74.0774 53.6284L68.6788 59.027ZM88.2746 67.9637L97.6369 58.6019L92.2385 53.2032L82.8762 62.5651L88.2746 67.9637ZM77.6155 67.9636C80.5589 70.9071 85.3311 70.9071 88.2746 67.9637L82.8762 62.5651C82.8807 62.5605 82.8933 62.5508 82.9104 62.5439C82.9249 62.538 82.9366 62.5365 82.9451 62.5365C82.9537 62.5365 82.9653 62.538 82.9799 62.5439C82.9969 62.5508 83.0095 62.5605 83.014 62.5651L77.6155 67.9636Z"></path>
<path fill="#B97030" d="M70.0921 48.2924L70.3951 57.9889L71.9342 59.519L74.8965 55.5304L73.6247 51.3943C73.273 50.2505 72.5047 49.2804 71.4718 48.676L70.4514 48.0789C70.2893 47.984 70.0862 48.1047 70.0921 48.2924Z"></path>
<path stroke-linecap="round" stroke-width="2.38791" stroke="#B97030" d="M68.2695 56.9299L70.6212 59.1309"></path>
<path stroke-width="9.33867" stroke="#935A30" d="M105.164 68.9804L90.0728 84.0804C89.2773 84.8764 88.8304 85.9558 88.8304 87.0812L88.8309 105.056"></path>
<path fill="#76808F" d="M93.5449 113.548L93.5449 98.0989L84.1738 98.0989L84.0927 107.183L76.8128 113.548L85.1788 113.548L93.5449 113.548Z"></path>
<path stroke-width="9.33867" stroke="#929AA5" d="M106.811 67.4016L99.3476 74.8646"></path>
<path fill="#929AA5" d="M110.096 57.5282C110.963 58.3949 111.651 59.4237 112.12 60.556C112.589 61.6883 112.83 62.9019 112.83 64.1274C112.83 65.353 112.589 66.5666 112.12 67.6989C111.651 68.8312 110.963 69.86 110.096 70.7266L103.497 64.1274L110.096 57.5282Z"></path>
<path stroke-width="9.33867" stroke="#B97030" d="M104.702 97.4621L93.6763 86.4359C92.0186 84.7782 92.0186 82.0906 93.6763 80.4328L100.958 73.1514L107.621 66.488"></path>
<path stroke-width="9.33867" stroke="#5E6673" d="M109.229 65.0373L101.284 72.9269"></path>
<path fill="#5E6673" d="M112.518 55.164C113.385 56.0307 114.072 57.0595 114.541 58.1918C115.01 59.3241 115.252 60.5377 115.252 61.7632C115.252 62.9888 115.01 64.2024 114.541 65.3347C114.072 66.467 113.385 67.4958 112.518 68.3625L105.919 61.7632L112.518 55.164Z"></path>
<path fill="#76808F" d="M114 99.9846L103.076 89.0604L96.4498 95.6868L102.816 102.168L102.169 111.816L114 99.9846Z"></path>
<ellipse fill="#B97030" transform="matrix(-0.707107 -0.707828 0.706386 -0.707107 123.884 139.268)" ry="4.93291" rx="4.93794" cy="43.9506" cx="90.7562"></ellipse>
<path fill="#5E6673" d="M95.6981 43.9513C95.6981 42.9756 95.4085 42.0219 94.8659 41.2107C94.3233 40.3995 93.5521 39.7672 92.6499 39.3939C91.7476 39.0205 90.7547 38.9228 89.7969 39.1132C88.839 39.3035 87.9591 39.7733 87.2686 40.4632L90.7602 43.9513L95.6981 43.9513Z"></path>
<path fill="#5E6673" d="M95.3316 35.3376C92.5742 35.6093 90.8259 38.2793 91.6598 40.4632L93.7643 40.503C94.0423 38.9544 95.71 38.7955 98.9029 39.4365C102.849 40.2287 106.177 38.9987 107.903 36.3107L101.136 31.3641C99.2312 33.6881 98.423 35.0329 95.3316 35.3376Z"></path>
<circle fill="#5E6673" transform="rotate(-60 104.422 33.974)" r="4.18524" cy="33.974" cx="104.422"></circle>
<path fill="#F0B90B" d="M93.6874 51.7522C95.1782 50.2614 97.5952 50.2614 99.086 51.7522C100.577 53.243 100.577 55.66 99.086 57.1508L93.6874 51.7522ZM99.086 57.1508L90.3614 65.8753L84.9629 60.4768L93.6874 51.7522L99.086 57.1508Z"></path>
<path fill="#F0B90B" d="M101.377 44.0282L112.516 55.1674L101.689 65.9947L90.5497 54.8555L101.377 44.0282Z"></path>
<path fill="#B97030" d="M103.946 50.913C101.838 50.9142 100.128 49.206 100.127 47.0978C100.125 44.9895 101.834 43.2795 103.942 43.2783L116.948 43.2711L116.948 30.3014L119.596 30.3014L124.235 23.7214C124.347 23.5618 124.591 23.5885 124.667 23.7687L125.179 24.9945C125.659 26.1425 125.691 27.4289 125.268 28.599L124.583 30.4921L124.583 43.3686C124.583 47.5296 121.211 50.9035 117.05 50.9058L103.946 50.913Z" clip-rule="evenodd" fill-rule="evenodd"></path>
<path fill="#F0B90B" d="M103.591 50.913C101.483 50.9146 99.7722 49.2069 99.7705 47.0986C99.7688 44.9903 101.477 43.2799 103.585 43.2782L103.591 50.913ZM103.585 43.2782L116.361 43.2681L116.367 50.9028L103.591 50.913L103.585 43.2782Z"></path>
<path stroke-linecap="round" stroke-width="2.48301" stroke="#B97030" d="M118.252 28.9266L118.252 32.3679"></path>
<defs>
<linearGradient gradientUnits="userSpaceOnUse" y2="35.279" x2="52.6974" y1="76.5209" x1="52.6974" id="paint0_linear_5999_260879">
<stop stop-color="#F0B90B"></stop>
<stop stop-color="#F8D33A" offset="1"></stop>
</linearGradient>
</defs>
</svg>
