<svg xmlns="http://www.w3.org/2000/svg" fill="none" viewBox="0 0 136 136" height="136" width="136">
<g clip-path="url(#clip0_5999_260243)">
<path fill="#CB8C54" d="M68.0507 83.2546C67.7785 83.2901 67.5009 83.3085 67.219 83.3085L55.468 83.3084L41.085 95.9359L41.1674 104.788L42.8333 104.754H48.4213C48.4213 108.63 49.8594 112.163 54.3101 112.163L70.3018 112.12L70.3017 83.2546L68.0507 83.2546Z" clip-rule="evenodd" fill-rule="evenodd" opacity="0.8"></path>
<path fill="#E8A37D" d="M73.5879 74.4305L49.4577 74.4304L43.7553 78.6117H43.6562L31.5731 90.8255L29.2761 90.7981L41.332 78.6117L34.5279 78.6116C32.7546 78.6116 31.0564 79.328 29.8189 80.5982L0.000366211 111.204V158.821L23.1042 132.336L55.9529 123.444H62.3396H64.2063C66.7026 123.444 68.7263 121.42 68.7263 118.924C68.7263 116.428 66.7026 114.404 64.2063 114.404H46.1419C43.4366 114.404 41.2365 112.225 41.2113 109.519L41.0849 95.9357L55.4679 83.3082L67.2189 83.3083C70.7364 83.3083 73.5879 80.4568 73.5879 76.9393V74.4305Z" clip-rule="evenodd" fill-rule="evenodd" opacity="0.8"></path>
<rect fill="#E6E8EA" transform="matrix(-1 0 0 1 102.535 83.2536)" rx="2.46541" height="31.2285" width="46.8428"></rect>
<rect fill="#AEB4BC" transform="matrix(1 0 0 -1 80.3467 108.73)" height="1.64361" width="17.2579"></rect>
<rect fill="#AEB4BC" transform="matrix(1 0 0 -1 80.3467 100.511)" height="1.64361" width="13.1489"></rect>
<rect fill="#AEB4BC" transform="matrix(1 0 0 -1 80.3467 93.9373)" height="1.64361" width="17.2579"></rect>
<rect fill="#FAFAFA" transform="matrix(-1 0 0 1 77.0596 87.3631)" height="21.3669" width="16.4361"></rect>
<path fill="url(#paint0_linear_5999_260243)" d="M77.0596 100.512V108.73H60.6235V100.512H65.4173L68.842 103.936L72.2657 100.512H77.0596Z"></path>
<path fill="url(#paint1_linear_5999_260243)" d="M64.0481 94.0033C64.0482 96.6508 66.1944 98.7972 68.8419 98.7972C71.4895 98.7972 73.6357 96.6509 73.6357 94.0034C73.6357 91.3558 71.4895 89.2092 68.8419 89.2092C66.1944 89.2093 64.0482 91.3558 64.0481 94.0033Z"></path>
<path fill="#02C076" d="M82.975 19.0759L92.2014 22.0344V32.0197L97.5877 39.576L92.2014 47.1324V57.1176L82.975 60.0762L77.3892 67.9124L67.9633 64.8899L58.5373 67.9124L52.9516 60.0762L43.7251 57.1176V47.1324L38.3389 39.576L43.7251 32.0197V22.0344L52.9516 19.0759L58.5373 11.2396L67.9633 14.2622L77.3892 11.2396L82.975 19.0759Z"></path>
<path fill="white" d="M63.6825 50.9927L53.3945 40.6778L57.1916 36.8808L63.6825 43.371L78.6019 28.451L82.4265 32.2753L63.6825 50.9927Z"></path>
</g>
<defs>
<linearGradient gradientUnits="userSpaceOnUse" y2="108.73" x2="68.8415" y1="100.512" x1="68.8415" id="paint0_linear_5999_260243">
<stop stop-color="#929AA5"></stop>
<stop stop-color="#76808F" offset="1"></stop>
</linearGradient>
<linearGradient gradientUnits="userSpaceOnUse" y2="89.2092" x2="68.8419" y1="98.7972" x1="68.8419" id="paint1_linear_5999_260243">
<stop stop-color="#F0B90B"></stop>
<stop stop-color="#F8D33A" offset="1"></stop>
</linearGradient>
<clipPath id="clip0_5999_260243">
<rect fill="white" height="136" width="136"></rect>
</clipPath>
</defs>
</svg>
